<svg viewBox="0 0 409.88 315" xmlns="http://www.w3.org/2000/svg" xmlns:xlink="http://www.w3.org/1999/xlink" width="409.879883" height="315.000000" fill="none">
	<rect id="Illustration" width="409.879486" height="315.000000" x="0.000000" y="0.000000" fill="rgb(255,255,255)" fill-opacity="0" />
	<path id="Vector" d="M29.2111 290.191C37.9311 306.42 56.4381 313.388 56.4381 313.388C56.4381 313.388 60.8071 294.041 52.0871 277.811C43.3671 261.581 24.8602 254.614 24.8602 254.614C24.8602 254.614 20.4911 273.961 29.2111 290.191Z" fill="rgb(255,164.902,65.875)" fill-rule="nonzero" />
	<path id="Vector" d="M35.2047 284.851C50.9479 294.357 57.0111 313.238 57.0111 313.238C57.0111 313.238 37.5496 316.707 21.8064 307.201C6.0632 297.695 0 278.814 0 278.814C0 278.814 19.4616 275.345 35.2047 284.851Z" fill="rgb(255,206,127)" fill-rule="nonzero" />
	<path id="Vector" d="M388.169 -186.396L289.942 -186.396L289.942 -184.987L388.169 -184.987L388.169 -186.396Z" fill="rgb(242,242,242)" fill-rule="evenodd" />
	<path id="Vector" d="M361.508 -185.339L360.104 -185.339L360.104 -172.313L361.508 -172.313L361.508 -185.339Z" fill="rgb(242,242,242)" fill-rule="evenodd" />
	<path id="Vector" d="M318.709 -185.339L317.306 -185.339L317.306 -172.313L318.709 -172.313L318.709 -185.339Z" fill="rgb(242,242,242)" fill-rule="evenodd" />
	<path id="Vector" d="M437.984 -118.798L339.758 -118.798L339.758 -117.39L437.984 -117.39L437.984 -118.798Z" fill="rgb(242,242,242)" fill-rule="evenodd" />
	<path id="Vector" d="M367.822 -131.472L366.419 -131.472L366.419 -118.446L367.822 -118.446L367.822 -131.472Z" fill="rgb(242,242,242)" fill-rule="evenodd" />
	<path id="Vector" d="M410.621 -131.472L409.218 -131.472L409.218 -118.446L410.621 -118.446L410.621 -131.472Z" fill="rgb(242,242,242)" fill-rule="evenodd" />
	<path id="Vector" d="M568.484 -87.1113L470.258 -87.1113L470.258 -85.703L568.484 -85.703L568.484 -87.1113Z" fill="rgb(242,242,242)" fill-rule="evenodd" />
	<path id="Vector" d="M498.323 -99.7861L496.92 -99.7861L496.92 -86.7594L498.323 -86.7594L498.323 -99.7861Z" fill="rgb(242,242,242)" fill-rule="evenodd" />
	<path id="Vector" d="M541.122 -99.7861L539.719 -99.7861L539.719 -86.7594L541.122 -86.7594L541.122 -99.7861Z" fill="rgb(242,242,242)" fill-rule="evenodd" />
	<path id="Vector" d="M558.662 239.612L460.436 239.612L460.436 241.02L558.662 241.02L558.662 239.612Z" fill="rgb(242,242,242)" fill-rule="evenodd" />
	<path id="Vector" d="M488.501 226.937L487.098 226.937L487.098 239.964L488.501 239.964L488.501 226.937Z" fill="rgb(242,242,242)" fill-rule="evenodd" />
	<path id="Vector" d="M531.299 226.937L529.896 226.937L529.896 239.964L531.299 239.964L531.299 226.937Z" fill="rgb(242,242,242)" fill-rule="evenodd" />
	<path id="Vector" d="M390.976 13.5813L292.749 13.5813L292.749 14.9896L390.976 14.9896L390.976 13.5813Z" fill="rgb(242,242,242)" fill-rule="evenodd" />
	<path id="Vector" d="M320.813 0.906738L319.41 0.906738L319.41 13.9334L320.813 13.9334L320.813 0.906738Z" fill="rgb(242,242,242)" fill-rule="evenodd" />
	<path id="Vector" d="M363.612 0.906738L362.209 0.906738L362.209 13.9334L363.612 13.9334L363.612 0.906738Z" fill="rgb(242,242,242)" fill-rule="evenodd" />
	<path id="Vector" d="M421.847 183.28L323.62 183.28L323.62 184.688L421.847 184.688L421.847 183.28Z" fill="rgb(242,242,242)" fill-rule="evenodd" />
	<path id="Vector" d="M351.685 170.606L350.281 170.606L350.281 183.632L351.685 183.632L351.685 170.606Z" fill="rgb(242,242,242)" fill-rule="evenodd" />
	<path id="Vector" d="M394.483 170.606L393.08 170.606L393.08 183.632L394.483 183.632L394.483 170.606Z" fill="rgb(242,242,242)" fill-rule="evenodd" />
	<path id="Vector" d="M579.009 131.878L480.782 131.878L480.782 133.286L579.009 133.286L579.009 131.878Z" fill="rgb(242,242,242)" fill-rule="evenodd" />
	<path id="Vector" d="M508.847 119.203L507.443 119.203L507.443 132.23L508.847 132.23L508.847 119.203Z" fill="rgb(242,242,242)" fill-rule="evenodd" />
	<path id="Vector" d="M551.645 119.203L550.242 119.203L550.242 132.23L551.645 132.23L551.645 119.203Z" fill="rgb(242,242,242)" fill-rule="evenodd" />
	<path id="Vector" d="M254.028 282.759L87.8945 282.759L87.8945 281.56L252.832 281.56L252.832 223.383L101.861 223.383L94.5269 208.049L95.6046 207.53L102.613 222.184L254.028 222.184L254.028 282.759Z" fill="rgb(47,46,65)" fill-rule="nonzero" />
	<path id="Vector" d="M110.006 312.147C116.937 312.147 122.555 306.508 122.555 299.552C122.555 292.596 116.937 286.957 110.006 286.957C103.075 286.957 97.4561 292.596 97.4561 299.552C97.4561 306.508 103.075 312.147 110.006 312.147Z" fill="rgb(15.9375,15.9375,15.9375)" fill-rule="evenodd" />
	<path id="Vector" d="M233.71 312.147C240.641 312.147 246.259 306.508 246.259 299.552C246.259 292.596 240.641 286.957 233.71 286.957C226.779 286.957 221.16 292.596 221.16 299.552C221.16 306.508 226.779 312.147 233.71 312.147Z" fill="rgb(15.9375,15.9375,15.9375)" fill-rule="evenodd" />
	<path id="Vector" d="M379.524 39.8585C383.814 39.8585 387.293 36.3678 387.293 32.0617C387.293 27.7557 383.814 24.2649 379.524 24.2649C375.233 24.2649 371.755 27.7557 371.755 32.0617C371.755 36.3678 375.233 39.8585 379.524 39.8585Z" fill="rgb(255,164.902,65.875)" fill-rule="evenodd" />
	<path id="Vector" d="M271.797 203.591L85.0622 203.591L44.6572 71.0457L313.408 71.0457L313.163 71.8255L271.797 203.591ZM85.9463 202.392L270.92 202.392L311.778 72.2451L46.2726 72.2451L85.9463 202.392Z" fill="rgb(47,46,65)" fill-rule="nonzero" />
	<path id="Vector" d="M257.22 196.694L93.2041 196.694L57.7148 79.1421L293.768 79.1421L293.553 79.8342L257.22 196.694Z" fill="rgb(242,242,242)" fill-rule="nonzero" />
	<path id="Vector" d="M316.756 59.2044L315.601 58.8966L323.487 29.0627L369.366 29.0627L369.366 30.2626L324.407 30.2626L316.756 59.2044Z" fill="rgb(47,46,65)" fill-rule="nonzero" />
	<path id="Vector" d="M299.978 111.229L57.7139 111.229L57.7139 112.429L299.978 112.429L299.978 111.229Z" fill="rgb(47,46,65)" fill-rule="evenodd" />
	<path id="Vector" d="M286.104 155.421L71.1855 155.421L71.1855 156.621L286.104 156.621L286.104 155.421Z" fill="rgb(47,46,65)" fill-rule="evenodd" />
	<path id="Vector" d="M179.626 71.6455L178.431 71.6455L178.431 202.992L179.626 202.992L179.626 71.6455Z" fill="rgb(47,46,65)" fill-rule="evenodd" />
	<path id="Vector" d="M131.623 0L0 0L0 1.19543L131.623 1.19543L131.623 0Z" fill="rgb(47,46,65)" fill-rule="evenodd" transform="matrix(0.0651831,-0.997873,0.997843,0.0656522,224.558,202.951)" />
	<path id="Vector" d="M1.19543 0L0 0L0 131.623L1.19543 131.623L1.19543 0Z" fill="rgb(47,46,65)" fill-rule="evenodd" transform="matrix(0.997868,-0.0652707,0.064805,0.997898,123.752,71.6843)" />
	<path id="Vector" d="M389.763 312.48L0 312.48L0 315L389.763 315L389.763 312.48Z" fill="rgb(8.5,8.5,8.5)" fill-rule="evenodd" />
	<path id="Vector" d="M140.498 36.8181L42.2715 36.8181L42.2715 38.2264L140.498 38.2264L140.498 36.8181Z" fill="rgb(242,242,242)" fill-rule="evenodd" />
	<path id="Vector" d="M70.3359 24.1436L68.9326 24.1436L68.9326 37.1702L70.3359 37.1702L70.3359 24.1436Z" fill="rgb(242,242,242)" fill-rule="evenodd" />
	<path id="Vector" d="M113.135 24.1436L111.731 24.1436L111.731 37.1702L113.135 37.1702L113.135 24.1436Z" fill="rgb(242,242,242)" fill-rule="evenodd" />
	<path id="Vector" d="M174.877 -171.609L76.6504 -171.609L76.6504 -170.2L174.877 -170.2L174.877 -171.609Z" fill="rgb(242,242,242)" fill-rule="evenodd" />
	<path id="Vector" d="M148.216 -170.552L146.812 -170.552L146.812 -157.526L148.216 -157.526L148.216 -170.552Z" fill="rgb(242,242,242)" fill-rule="evenodd" />
	<path id="Vector" d="M105.417 -170.552L104.014 -170.552L104.014 -157.526L105.417 -157.526L105.417 -170.552Z" fill="rgb(242,242,242)" fill-rule="evenodd" />
	<path id="Vector" d="M273.806 -32.8923L175.579 -32.8923L175.579 -31.484L273.806 -31.484L273.806 -32.8923Z" fill="rgb(242,242,242)" fill-rule="evenodd" />
	<path id="Vector" d="M247.143 -31.8359L245.74 -31.8359L245.74 -18.8092L247.143 -18.8092L247.143 -31.8359Z" fill="rgb(242,242,242)" fill-rule="evenodd" />
	<path id="Vector" d="M204.345 -31.8359L202.941 -31.8359L202.941 -18.8092L204.345 -18.8092L204.345 -31.8359Z" fill="rgb(242,242,242)" fill-rule="evenodd" />
	<path id="Vector" d="M106.82 -33.5964L8.59375 -33.5964L8.59375 -32.1882L106.82 -32.1882L106.82 -33.5964Z" fill="rgb(242,242,242)" fill-rule="evenodd" />
	<path id="Vector" d="M80.1591 -32.54L78.7559 -32.54L78.7559 -19.5134L80.1591 -19.5134L80.1591 -32.54Z" fill="rgb(242,242,242)" fill-rule="evenodd" />
	<path id="Vector" d="M37.3603 -32.54L35.957 -32.54L35.957 -19.5134L37.3603 -19.5134L37.3603 -32.54Z" fill="rgb(242,242,242)" fill-rule="evenodd" />
	<path id="Vector" d="M224.692 -104.011L126.466 -104.011L126.466 -102.603L224.692 -102.603L224.692 -104.011Z" fill="rgb(242,242,242)" fill-rule="evenodd" />
	<path id="Vector" d="M154.53 -116.685L153.127 -116.685L153.127 -103.659L154.53 -103.659L154.53 -116.685Z" fill="rgb(242,242,242)" fill-rule="evenodd" />
	<path id="Vector" d="M197.329 -116.685L195.926 -116.685L195.926 -103.659L197.329 -103.659L197.329 -116.685Z" fill="rgb(242,242,242)" fill-rule="evenodd" />
</svg>
