<svg viewBox="0 0 18.1665 18.1666" xmlns="http://www.w3.org/2000/svg" xmlns:xlink="http://www.w3.org/1999/xlink" width="18.166504" height="18.166626" fill="none" customFrame="#000000">
	<g id="Group">
		<path id="Vector" d="M9.08333 17.4168C13.6858 17.4168 17.4167 13.686 17.4167 9.08346C17.4167 4.48096 13.6858 0.750122 9.08333 0.750122C4.48083 0.750122 0.75 4.48096 0.75 9.08346C0.75 13.686 4.48083 17.4168 9.08333 17.4168Z" fill-rule="nonzero" stroke="rgb(130.688,130.688,130.688)" stroke-linecap="round" stroke-linejoin="round" stroke-width="1.500000" />
		<path id="Vector" d="M9.91699 0.791626C9.91699 0.791626 12.417 4.08329 12.417 9.08329C12.417 14.0833 9.91699 17.375 9.91699 17.375" fill-rule="nonzero" stroke="rgb(130.688,130.688,130.688)" stroke-linecap="round" stroke-linejoin="round" stroke-width="1.500000" />
		<path id="Vector" d="M8.25 17.375C8.25 17.375 5.75 14.0833 5.75 9.08329C5.75 4.08329 8.25 0.791626 8.25 0.791626" fill-rule="nonzero" stroke="rgb(130.688,130.688,130.688)" stroke-linecap="round" stroke-linejoin="round" stroke-width="1.500000" />
		<path id="Vector" d="M1.2749 12.0001L16.8916 12.0001" stroke="rgb(130.688,130.688,130.688)" stroke-linecap="round" stroke-linejoin="round" stroke-width="1.500000" />
		<path id="Vector" d="M1.2749 6.16663L16.8916 6.16663" stroke="rgb(130.688,130.688,130.688)" stroke-linecap="round" stroke-linejoin="round" stroke-width="1.500000" />
	</g>
</svg>
