<svg viewBox="0 0 15 21" xmlns="http://www.w3.org/2000/svg" xmlns:xlink="http://www.w3.org/1999/xlink" width="15.000000" height="21.000000" fill="none" customFrame="#000000">
	<path id="Vector" d="M2.14286 2.1L2.14286 18.9L12.8571 18.9L12.8571 2.1L2.14286 2.1ZM1.07143 0L13.9286 0C14.2127 4.66294e-16 14.4853 0.110625 14.6862 0.307538C14.8871 0.504451 15 0.771523 15 1.05L15 19.95C15 20.2285 14.8871 20.4956 14.6862 20.6925C14.4853 20.8894 14.2127 21 13.9286 21L1.07143 21C0.787268 21 0.514746 20.8894 0.313814 20.6925C0.112883 20.4956 0 20.2285 0 19.95L0 1.05C0 0.771523 0.112883 0.504451 0.313814 0.307538C0.514746 0.110625 0.787268 4.66294e-16 1.07143 0ZM7.5 15.75C7.78416 15.75 8.05668 15.8606 8.25761 16.0575C8.45855 16.2544 8.57143 16.5215 8.57143 16.8C8.57143 17.0785 8.45855 17.3455 8.25761 17.5425C8.05668 17.7394 7.78416 17.85 7.5 17.85C7.21584 17.85 6.94332 17.7394 6.74239 17.5425C6.54145 17.3455 6.42857 17.0785 6.42857 16.8C6.42857 16.5215 6.54145 16.2544 6.74239 16.0575C6.94332 15.8606 7.21584 15.75 7.5 15.75Z" fill="rgb(130.688,130.688,130.688)" fill-rule="nonzero" />
</svg>
