<svg viewBox="0 0 19.9277 17" xmlns="http://www.w3.org/2000/svg" xmlns:xlink="http://www.w3.org/1999/xlink" width="19.927734" height="17.000000" fill="none" customFrame="#000000">
	<path id="Vector" d="M14.9458 3.4L19.9278 3.4L19.9278 5.1L17.935 5.1L17.935 16.15C17.935 16.3754 17.83 16.5916 17.6432 16.751C17.4563 16.9104 17.2029 17 16.9386 17L2.98917 17C2.72491 17 2.47147 16.9104 2.28461 16.751C2.09775 16.5916 1.99278 16.3754 1.99278 16.15L1.99278 5.1L0 5.1L0 3.4L4.98194 3.4L4.98194 0.85C4.98194 0.624566 5.08692 0.408365 5.27378 0.248959C5.46064 0.0895533 5.71407 3.77476e-16 5.97833 0L13.9494 0C14.2137 3.77476e-16 14.4671 0.0895533 14.654 0.248959C14.8409 0.408365 14.9458 0.624566 14.9458 0.85L14.9458 3.4ZM15.9422 5.1L3.98556 5.1L3.98556 15.3L15.9422 15.3L15.9422 5.1ZM11.3728 10.2L13.1344 11.7028L11.7255 12.9047L9.96389 11.4019L8.20227 12.9047L6.79338 11.7028L8.555 10.2L6.79338 8.6972L8.20227 7.4953L9.96389 8.9981L11.7255 7.4953L13.1344 8.6972L11.3728 10.2ZM6.97472 1.7L6.97472 3.4L12.9531 3.4L12.9531 1.7L6.97472 1.7Z" fill="rgb(223.125,100.406,100.406)" fill-rule="nonzero" />
</svg>
